Coordinates
version=1
nRows=6
nColumns=36
inDegrees=yes

Units are S.I. units (second, meters, Newtons, ...)
If the header above contains a line with 'inDegrees', this indicates whether rotational values are in degrees (yes) or radians (no).

endheader
time	pelvis_tilt	pelvis_list	pelvis_rotation	pelvis_tx	pelvis_ty	pelvis_tz	hip_flexion_r	hip_adduction_r	hip_rotation_r	knee_angle_r	knee_angle_r_beta	ankle_angle_r	subtalar_angle_r	mtp_angle_r	hip_flexion_l	hip_adduction_l	hip_rotation_l	knee_angle_l	knee_angle_l_beta	ankle_angle_l	subtalar_angle_l	mtp_angle_l	lumbar_extension	lumbar_bending	lumbar_rotation	arm_flex_r	arm_add_r	arm_rot_r	elbow_flex_r	pro_sup_r	arm_flex_l	arm_add_l	arm_rot_l	elbow_flex_l	pro_sup_l
      3.26666670	     -0.20810247	     -1.29914432	      2.58640712	      0.08937789	      0.71500752	     -0.06932925	     60.83372943	    -13.89125164	      0.86147723	     93.83418059	      1.63771540	     28.06681265	    -13.00607472	     -7.49999987	     63.56719270	    -12.46183521	      6.88416873	     94.55140402	      1.65023331	     27.53030165	      4.73682232	     -7.49999987	    -72.59659399	      1.44064222	      0.85302619	     21.94074906	    -13.08824655	     -3.04908925	     32.26192806	     83.33407226	     24.99976750	    -10.79459128	     -2.82047504	     34.49400167	     71.50502780
      3.27083330	     -0.45593156	     -1.30418807	      2.55883020	      0.09404371	      0.71314693	     -0.07311966	     61.19110085	    -14.26103145	      1.01665417	     94.45245558	      1.64850634	     28.24139712	    -12.66289227	     -7.49999987	     63.97513979	    -12.18821749	      6.95973461	     95.39725852	      1.66499626	     27.70163248	      4.07442634	     -7.49999987	    -72.64047125	      1.82019464	      0.80970948	     22.32583696	    -13.39325242	     -2.51651156	     32.15666978	     83.31150831	     25.03986670	    -10.46049653	     -2.29351736	     34.26452498	     71.28525945
      3.27500000	     -0.36658010	     -1.36011133	      2.39818668	      0.09850558	      0.70932730	     -0.07759232	     61.21141808	    -14.45803963	      1.26842655	     95.03780206	      1.65872256	     28.30564834	    -12.56234850	     -7.49999987	     63.96841532	    -12.07086247	      6.92915342	     96.33027870	      1.68128053	     28.16302606	      3.57192750	     -7.49999987	    -72.97088385	      2.11330014	      0.78896732	     22.64345984	    -13.44414243	     -2.46994134	     32.15655834	     83.30521780	     24.94294151	    -10.09133581	     -2.07781044	     34.14245141	     71.27546595
      3.27916670	     -0.67058748	     -1.27433680	      2.44743712	      0.09581479	      0.70923815	     -0.07639279	     61.67777239	    -14.94038193	      1.45081535	     95.47694459	      1.66638704	     28.82550391	    -11.60550991	     -7.49999987	     64.30005372	    -11.54063875	      6.84299465	     96.76089652	      1.68879623	     28.39743460	      2.63702262	     -7.49999987	    -72.93299009	      2.41737428	      0.75310700	     23.33549173	    -13.81747973	     -0.70278023	     31.43671313	     83.28181471	     25.55780452	    -10.26967146	      1.11291141	     32.80004070	     70.83858820
      3.28333330	     -0.78873340	     -1.30828130	      2.42582094	      0.09823483	      0.70903892	     -0.07397668	     61.73507448	    -14.93263593	      1.53839204	     95.70971224	      1.67044960	     28.89433495	    -11.62264501	     -7.49999987	     64.42344901	    -11.46116203	      6.93682921	     97.03911790	      1.69365211	     28.49665564	      2.38168604	     -7.49999987	    -73.28181265	      2.45560562	      0.81822791	     23.71107313	    -13.69667093	     -0.69213620	     31.93403087	     82.88795914	     25.72419403	    -10.18135082	      1.23764790	     33.19914308	     70.60050221
      3.28750000	     -1.12319794	     -1.42392314	      2.57155252	      0.09601454	      0.70863334	     -0.07320674	     62.00921211	    -14.89772541	      1.36915807	     95.79500672	      1.67193827	     29.36571298	    -11.15808918	     -7.49999987	     65.00385867	    -11.40376703	      7.15761660	     97.26879163	      1.69766067	     28.39861861	      2.33586390	     -7.49999987	    -73.36748307	      2.58724527	      0.92940110	     24.70416708	    -13.65276189	     -0.36519379	     31.28075872	     82.76306807	     26.44813692	    -10.07709126	      2.17036237	     32.32584718	     70.35050099
